<svg width="144" height="18" viewBox="0 0 144 18" fill="none" xmlns="http://www.w3.org/2000/svg">
<path d="M9.26306 17.3697L4.53019 9.61725L2.29381 12.8037V17.3697H0V0.519043H2.29381V9.68505L8.52999 0.519043H11.0873L6.06727 7.82405L11.8001 17.3697H9.26644H9.26306Z" fill="white"/>
<path d="M13.5128 13.8846V0H15.6918V13.5151C15.6918 14.1761 15.8809 14.6948 16.2593 15.0744C16.6377 15.4541 17.1309 15.6439 17.7423 15.6439V17.5998C14.9215 17.5998 13.5128 16.3625 13.5128 13.8846Z" fill="white"/>
<path d="M21.32 17.3692V6.8913H19.6343V5.05064H23.499V17.3692H21.32ZM22.5125 0.393066C22.8875 0.393066 23.2051 0.525268 23.4686 0.789672C23.7321 1.05408 23.8638 1.36933 23.8638 1.73881C23.8638 2.1083 23.7321 2.43372 23.4686 2.69813C23.2051 2.96253 22.8841 3.09473 22.5125 3.09473C22.1409 3.09473 21.8301 2.96253 21.5666 2.69813C21.3031 2.43372 21.1714 2.11508 21.1714 1.73881C21.1714 1.36255 21.2997 1.04391 21.5599 0.782892C21.82 0.521878 22.1375 0.393066 22.5125 0.393066Z" fill="white"/>
<path d="M34.5165 17.3693V10.2033C34.5165 8.89146 34.3205 7.97282 33.9253 7.4474C33.53 6.92199 32.8713 6.66097 31.949 6.66097C31.4524 6.66097 30.9322 6.81012 30.3917 7.10842C29.8478 7.40673 29.4322 7.77621 29.1417 8.2135V17.3693H26.9628V5.05082H28.4526L29.1417 6.63724C29.8613 5.42709 31.0335 4.82031 32.6618 4.82031C35.3509 4.82031 36.6954 6.46097 36.6954 9.74229V17.3693H34.5165Z" fill="white"/>
<path d="M40.8435 17.3692V6.8913H39.1578V5.05064H43.0225V17.3692H40.8435ZM42.036 0.393066C42.411 0.393066 42.7286 0.525268 42.9921 0.789672C43.2556 1.05408 43.3873 1.36933 43.3873 1.73881C43.3873 2.1083 43.2556 2.43372 42.9921 2.69813C42.7286 2.96253 42.4076 3.09473 42.036 3.09473C41.6644 3.09473 41.3536 2.96253 41.0901 2.69813C40.8266 2.43372 40.6949 2.11508 40.6949 1.73881C40.6949 1.36255 40.8232 1.04391 41.0834 0.782892C41.3435 0.521878 41.661 0.393066 42.036 0.393066Z" fill="white"/>
<path d="M54.413 17.3693L50.5618 11.2033L48.6599 13.1694V17.3693H46.4809V0H48.6599V10.7762L53.359 5.0474H55.9028L51.9705 9.72871L56.7743 17.3659H54.413V17.3693Z" fill="white"/>
<path d="M65.2575 15.9558C64.3859 17.0541 63.0515 17.5998 61.2577 17.5998C60.2949 17.5998 59.4605 17.2473 58.7544 16.549C58.0484 15.8473 57.6937 14.9761 57.6937 13.9321C57.6937 12.6812 58.2376 11.627 59.3287 10.7626C60.4199 9.89822 61.805 9.46772 63.4941 9.46772C63.9535 9.46772 64.4737 9.56602 65.0514 9.76602C65.0514 7.77282 64.1663 6.77622 62.3928 6.77622C61.0313 6.77622 59.9841 7.14571 59.251 7.8813L58.3355 6.05081C58.7477 5.71183 59.3186 5.4237 60.0483 5.18302C60.778 4.94235 61.4739 4.82031 62.1394 4.82031C63.9197 4.82031 65.2136 5.22709 66.021 6.04064C66.8284 6.85419 67.2304 8.1457 67.2304 9.91856V14.3355C67.2304 15.4168 67.5513 16.1388 68.1932 16.4982V17.5897C67.3081 17.5897 66.6426 17.4642 66.2034 17.21C65.7642 16.9558 65.4501 16.5388 65.2575 15.9558ZM65.0514 11.3185C64.3623 11.166 63.8826 11.088 63.6055 11.088C62.5042 11.088 61.6056 11.3728 60.9131 11.9389C60.2172 12.505 59.8692 13.1762 59.8692 13.9524C59.8692 15.2338 60.6226 15.8744 62.1259 15.8744C63.2272 15.8744 64.2001 15.349 65.048 14.2982V11.3185H65.0514Z" fill="white"/>
<path d="M82.6957 17.3694H77.9054V0.518779C79.9458 0.420475 81.4153 0.369629 82.3173 0.369629C83.976 0.369629 85.2597 0.728947 86.1685 1.44419C87.0772 2.16283 87.5333 3.18655 87.5333 4.52213C87.5333 5.30517 87.2428 6.01703 86.6617 6.66109C86.0807 7.30515 85.4388 7.70853 84.7361 7.86785C86.0671 8.18988 87.0333 8.72208 87.6414 9.46784C88.2495 10.2102 88.5535 11.2237 88.5535 12.5051C88.5535 13.9864 88.013 15.1661 86.932 16.0474C85.8509 16.9288 84.4388 17.3694 82.6957 17.3694ZM80.1958 2.35944V7.20345C80.6755 7.25091 81.2734 7.27125 81.9829 7.27125C84.1517 7.27125 85.2395 6.38651 85.2395 4.61365C85.2395 3.05774 84.2429 2.27808 82.2464 2.27808C81.4829 2.27808 80.7971 2.3052 80.1958 2.35944ZM80.1958 8.98649V15.4169C80.9829 15.4949 81.5876 15.5322 82.0065 15.5322C83.4423 15.5322 84.4929 15.261 85.1516 14.722C85.8104 14.183 86.1448 13.322 86.1448 12.139C86.1448 11.0441 85.8307 10.2339 85.1989 9.7119C84.5672 9.18987 83.5166 8.92886 82.0403 8.92886L80.1958 8.98649Z" fill="white"/>
<path d="M90.2112 11.1825C90.2112 9.28082 90.7213 7.74524 91.7415 6.57577C92.7617 5.40629 94.1062 4.82324 95.7717 4.82324C97.5284 4.82324 98.8932 5.38595 99.8627 6.50797C100.832 7.62999 101.319 9.1893 101.319 11.1825C101.319 13.1757 100.822 14.735 99.8289 15.8808C98.8357 17.0265 97.4844 17.5994 95.7717 17.5994C94.0589 17.5994 92.657 17.0197 91.6807 15.8638C90.701 14.7045 90.2145 13.1452 90.2145 11.1825H90.2112ZM92.505 11.1825C92.505 14.274 93.5927 15.8163 95.7717 15.8163C96.7885 15.8163 97.5858 15.4028 98.1635 14.5757C98.7411 13.7486 99.0283 12.6164 99.0283 11.1825C99.0283 8.13168 97.9439 6.60288 95.7717 6.60288C94.7785 6.60288 93.9846 7.00966 93.3934 7.82321C92.8022 8.63676 92.505 9.75539 92.505 11.1825Z" fill="white"/>
<path d="M112.875 6.05078L111.797 7.59314C111.574 7.36941 111.182 7.15924 110.622 6.95924C110.061 6.75925 109.507 6.66094 108.966 6.66094C107.781 6.66094 106.841 7.07789 106.145 7.90839C105.45 8.73889 105.102 9.88125 105.102 11.3287C105.102 12.7761 105.456 13.8676 106.169 14.6236C106.879 15.3795 107.865 15.7558 109.125 15.7558C110.105 15.7558 111.088 15.3761 112.081 14.6168L112.939 16.4574C111.77 17.2168 110.321 17.5964 108.595 17.5964C106.868 17.5964 105.537 17.0337 104.446 15.9049C103.352 14.7761 102.808 13.2507 102.808 11.3287C102.808 9.40668 103.375 7.78974 104.51 6.59993C105.645 5.41011 107.199 4.81689 109.169 4.81689C109.804 4.81689 110.49 4.95249 111.233 5.22028C111.973 5.48807 112.52 5.76604 112.871 6.04739L112.875 6.05078Z" fill="white"/>
<path d="M116.291 17.3692V6.8913H114.605V5.05064H118.47V17.3692H116.291ZM117.484 0.393066C117.859 0.393066 118.176 0.525268 118.44 0.789672C118.703 1.05408 118.835 1.36933 118.835 1.73881C118.835 2.1083 118.703 2.43372 118.44 2.69813C118.176 2.96253 117.855 3.09473 117.484 3.09473C117.112 3.09473 116.801 2.96253 116.538 2.69813C116.274 2.43372 116.142 2.11508 116.142 1.73881C116.142 1.36255 116.271 1.04391 116.531 0.782892C116.791 0.521878 117.109 0.393066 117.484 0.393066Z" fill="white"/>
<path d="M128.865 15.9558C127.993 17.0541 126.659 17.5998 124.865 17.5998C123.902 17.5998 123.068 17.2473 122.362 16.549C121.656 15.8473 121.301 14.9761 121.301 13.9321C121.301 12.6812 121.845 11.627 122.936 10.7626C124.027 9.89822 125.412 9.46772 127.101 9.46772C127.561 9.46772 128.081 9.56602 128.659 9.76602C128.659 7.77282 127.774 6.77622 126 6.77622C124.639 6.77622 123.592 7.14571 122.858 7.8813L121.943 6.05081C122.355 5.71183 122.926 5.4237 123.656 5.18302C124.385 4.94235 125.081 4.82031 125.747 4.82031C127.527 4.82031 128.821 5.22709 129.628 6.04064C130.436 6.85419 130.838 8.1457 130.838 9.91856V14.3355C130.838 15.4168 131.159 16.1388 131.801 16.4982V17.5897C130.915 17.5897 130.25 17.4642 129.811 17.21C129.372 16.9558 129.057 16.5388 128.865 15.9558ZM128.659 11.3185C127.97 11.166 127.49 11.088 127.213 11.088C126.112 11.088 125.213 11.3728 124.521 11.9389C123.825 12.505 123.477 13.1762 123.477 13.9524C123.477 15.2338 124.23 15.8744 125.733 15.8744C126.835 15.8744 127.808 15.349 128.655 14.2982V11.3185H128.659Z" fill="white"/>
<path d="M141.821 17.3693V10.2033C141.821 8.89146 141.625 7.97282 141.23 7.4474C140.835 6.92199 140.176 6.66097 139.254 6.66097C138.757 6.66097 138.237 6.81012 137.696 7.10842C137.152 7.40673 136.737 7.77621 136.446 8.2135V17.3693H134.267V5.05082H135.757L136.446 6.63724C137.166 5.42709 138.338 4.82031 139.966 4.82031C142.655 4.82031 144 6.46097 144 9.74229V17.3693H141.821Z" fill="white"/>
</svg>
