<svg width="144" height="39" viewBox="0 0 144 39" fill="none" xmlns="http://www.w3.org/2000/svg">
<path d="M77.0444 38.0768V26.3607H82.6128C85.3079 26.3607 86.5775 27.4299 86.5775 29.4234C86.5775 30.6151 86.0096 31.2276 85.2188 31.6953C86.2434 32.1519 86.8894 32.9872 86.8894 34.268C86.8894 36.6735 85.3636 38.0657 82.5571 38.0657H77.0333L77.0444 38.0768ZM79.7173 28.6215V30.8489H82.546C83.4481 30.8489 83.8379 30.4146 83.8379 29.7798C83.8379 29.0893 83.4481 28.6215 82.5126 28.6215H79.7173ZM79.7173 32.9984V35.7937H82.6351C83.6374 35.7937 84.1386 35.1589 84.1386 34.3348C84.1386 33.5107 83.6263 32.9984 82.6462 32.9984H79.7173ZM71.9883 35.8271H67.8008L67.1104 38.0657H64.1257L68.4468 26.3496H71.3869L75.708 38.0657H72.6788L71.9771 35.8271H71.9883ZM68.5247 33.5329H71.2867L69.9168 29.0447L68.5247 33.5329ZM88.9942 26.3607H91.823V38.0768H88.9942V26.3607ZM60.1276 38.0768L57.3879 32.7756L55.684 34.7691V38.0879H52.8552V26.3719H55.684V31.2944L59.5039 26.3719H62.9118L59.4148 30.4591L63.4686 38.0879H60.1387L60.1276 38.0768Z" fill="white"/>
<path d="M55.6296 11.2143V13.3637H59.9396V15.7915H55.6296V20.5025H52.8454V8.76413H61.5767V11.2143H55.6296ZM67.6463 16.4597H65.6528V20.5025H62.902V8.76413H68.2365C70.798 8.76413 72.6245 9.86669 72.6245 12.5507C72.6245 14.3103 71.8226 15.4017 70.4639 15.992L72.7804 20.5025H69.6286L67.6463 16.4597ZM65.6528 11.1252V14.1767H68.114C69.2723 14.1767 69.8291 13.6087 69.8291 12.6175C69.8291 11.6931 69.2723 11.1252 68.1586 11.1252H65.6639H65.6528ZM74.462 8.76413H82.926V11.1808H77.224V13.1632H81.0996V15.5465H77.224V18.0969H83.327V20.5136H74.462V8.76413ZM88.8954 20.6806C86.9798 20.6806 85.1868 19.9902 84.0843 19.0212L85.6768 17.0277C86.5121 17.6959 87.8819 18.2194 88.9956 18.2194C90.2986 18.2194 90.8555 17.863 90.8555 17.128C90.8555 16.4932 90.3543 16.2259 88.4944 15.7915C85.8773 15.1901 84.4741 14.4551 84.4741 12.2054C84.4741 9.95578 86.3005 8.58594 88.9511 8.58594C90.9 8.58594 92.3032 9.14278 93.4949 10.1117L91.9023 12.1386C90.9668 11.4481 89.9757 11.0472 88.8174 11.0472C87.6592 11.0472 87.2917 11.5038 87.2917 12.0384C87.2917 12.6621 87.8151 12.8625 89.519 13.2634C92.1139 13.8648 93.6731 14.689 93.6731 16.9164C93.6731 19.4444 91.8466 20.6918 88.8954 20.6918V20.6806ZM95.4327 8.76413H103.874V11.1808H98.1946V13.1632H102.048V15.5465H98.1946V18.0969H104.298V20.5136H95.4327V8.76413ZM108.552 13.4416V20.4913H105.868V8.76413H108.363L113.218 15.502V8.76413H115.902V20.4913H113.608L108.552 13.4416ZM118.208 8.76413H121.036V20.4913H118.208V8.76413ZM128.164 20.6806C125.246 20.6806 123.175 19.0547 123.175 15.4352V8.76413H126.003V15.4352C126.003 17.0946 126.761 18.1637 128.197 18.1637C129.634 18.1637 130.38 17.1057 130.38 15.4352V8.76413H133.198V15.4352C133.198 19.0324 131.115 20.6806 128.164 20.6806ZM139.223 20.6806C137.318 20.6806 135.525 19.9902 134.412 19.0212L136.004 17.0277C136.839 17.6959 138.22 18.2194 139.323 18.2194C140.626 18.2194 141.183 17.863 141.183 17.128C141.183 16.4932 140.682 16.2259 138.822 15.7915C136.205 15.1901 134.801 14.4551 134.801 12.2054C134.801 9.95578 136.628 8.58594 139.278 8.58594C141.227 8.58594 142.631 9.14278 143.822 10.1117L142.23 12.1386C141.294 11.4481 140.303 11.0472 139.145 11.0472C137.987 11.0472 137.619 11.5038 137.619 12.0384C137.619 12.6621 138.131 12.8625 139.846 13.2634C142.441 13.8648 144 14.689 144 16.9164C144 19.4444 142.174 20.6918 139.223 20.6918V20.6806Z" fill="white"/>
<path d="M26.4963 38.066V24.1115C26.4963 13.3086 16.9409 17.6075 16.9409 10.0789C16.9409 8.64226 17.6314 5.93598 17.6314 4.33227C17.6314 1.25847 16.2281 0 16.2281 0H10.6152C10.6152 0 12.0296 1.25847 12.0296 4.33227C12.0296 5.94712 11.3391 8.58657 11.3391 10.0789C11.3391 17.6409 20.8833 13.42 20.8833 24.1115V38.066H26.5186H26.4963Z" fill="white"/>
<path d="M15.8923 38.066V24.1115C15.8923 13.3086 6.33686 17.6075 6.33686 10.0789C6.33686 8.64226 7.02734 5.93598 7.02734 4.33227C7.02734 1.25847 5.61297 0 5.61297 0H0C0 0 1.40324 1.25847 1.40324 4.33227C1.40324 5.94712 0.712758 8.58657 0.712758 10.0789C0.712758 17.6409 10.257 13.42 10.257 24.1115V38.066H15.8923Z" fill="white"/>
<path d="M36.9295 38.066H31.2942V24.1115C31.2942 13.4089 21.75 17.6409 21.75 10.0789C21.75 8.58657 22.4405 5.93598 22.4405 4.33227C22.4405 1.25847 21.0372 0 21.0372 0H26.6502C26.6502 0 28.0757 1.25847 28.0757 4.33227C28.0757 5.94712 27.3852 8.64226 27.3852 10.0789C27.3852 17.6075 36.9295 13.3198 36.9295 24.1115V38.066Z" fill="white"/>
</svg>
