<svg width="128" height="26" viewBox="0 0 128 26" fill="none" xmlns="http://www.w3.org/2000/svg">
<g clip-path="url(#clip0_2348_447)">
<mask id="mask0_2348_447" style="mask-type:luminance" maskUnits="userSpaceOnUse" x="0" y="0" width="128" height="26">
<path d="M128 0H0V26H128V0Z" fill="white"/>
</mask>
<g mask="url(#mask0_2348_447)">
<path d="M55.2768 6.07262H51.85V23.8566H60.7892V22.1206H55.2768V6.07262ZM42.6282 6.07418H39.932L35.4041 23.8566H38.8016L39.7648 19.3867H44.7953L45.7042 23.8587H49.1017L44.7884 6.07444H42.6287L42.6282 6.07418ZM40.1391 17.6515L42.354 7.36144L44.4437 17.6515H40.1391ZM69.1579 6.07262H66.4618L61.9338 23.8566H65.3314L66.2937 19.3846H71.3242L72.2339 23.8566H75.6314L71.3202 6.07262H69.1606H69.1579ZM66.6635 17.6515L68.8803 7.36066L70.9707 17.6507H66.6646L66.6635 17.6515ZM85.5085 14.655H85.4921V14.5983C88.0635 14.467 89.2123 13.3056 89.2123 11.8896V9.5028C89.2123 7.7894 88.6737 6.0708 84.1992 6.0708H78.268V23.8548H79.5612V23.9328H85.1695C88.6555 23.9328 89.5194 22.5119 89.5194 20.7572V18.595C89.5194 16.157 88.8897 14.6552 85.5087 14.6552M81.6951 7.779H83.8021C84.2546 7.78332 84.6869 7.96487 85.0039 8.28372C85.3209 8.60257 85.4967 9.03264 85.4927 9.4794V12.2042C85.4963 12.61 85.3365 13.0005 85.0484 13.29C84.7604 13.5796 84.3677 13.7443 83.9567 13.7481H81.6956L81.6951 7.779ZM85.7081 20.507C85.7122 20.9594 85.5342 21.3949 85.2132 21.7177C84.8922 22.0405 84.4544 22.2242 83.9962 22.2285H81.6948V15.4519H84.0436C84.2641 15.4537 84.4821 15.4985 84.6851 15.5836C84.8881 15.6687 85.0721 15.7925 85.2266 15.9479C85.3811 16.1032 85.5031 16.2871 85.5855 16.4891C85.6679 16.691 85.7092 16.907 85.7071 17.1247L85.7081 20.507Z" fill="white"/>
<path d="M5.10184 17.9646C6.37492 18.1107 7.66481 17.9399 8.85387 17.4677C10.1212 16.9292 11.2003 16.0348 11.957 14.8958C12.7137 13.7568 13.1147 12.4234 13.11 11.0613C13.091 10.0733 12.6912 9.17838 12.3178 8.28789C11.9548 7.42235 11.5132 6.59061 11.0799 5.75679C10.3409 4.33043 10.2898 2.90875 11.245 1.54479C11.7223 0.887685 12.3925 0.391159 13.165 0.122379C13.9375 -0.146401 14.775 -0.174464 15.5641 0.0419856C16.3639 0.245592 17.0766 0.69676 17.5977 1.32936C18.1189 1.96196 18.421 2.74271 18.4599 3.55719C18.4842 4.36123 18.2818 5.15613 17.8752 5.85325C17.2672 6.9919 16.7405 8.17109 16.2989 9.38223C15.542 11.4362 15.9566 13.3327 17.1636 15.0435C18.7899 17.3502 21.0866 18.2758 23.8731 18.0017C25.1539 17.8762 26.3986 17.9669 27.4708 18.7799C28.0336 19.1815 28.4703 19.7317 28.7307 20.3672C28.9911 21.0028 29.0646 21.6979 28.9428 22.3729C28.8614 23.122 28.5579 23.8308 28.0702 24.4104C27.5825 24.99 26.9324 25.4146 26.2013 25.6309C24.542 26.1917 22.8169 25.5644 21.7587 24.0415C21.3333 23.4321 20.9557 22.7917 20.5748 22.1555C19.3022 20.0368 17.4599 18.8358 14.9926 18.6299C13.5476 18.5107 12.1005 18.8351 10.8494 19.5588C9.59826 20.2825 8.6042 21.3702 8.00317 22.6729C7.601 23.5741 7.11718 24.4211 6.30361 25.0355C5.67827 25.5102 4.91951 25.7823 4.13136 25.8145C3.34321 25.8467 2.56425 25.6375 1.90131 25.2154C0.535976 24.3577 -0.229917 22.6898 0.0616386 21.2088C0.186938 20.4189 0.561197 19.6881 1.13125 19.1201C1.7013 18.5521 2.43816 18.1759 3.23715 18.0449C3.85551 17.9729 4.4784 17.9458 5.10078 17.9638L5.10184 17.9646ZM126.86 14.6805L127.59 12.3202L125.881 12.6476L125.249 14.6802H124.354L123.978 15.6326H124.926L122.706 22.7959C122.474 23.5254 122.852 24.0262 123.394 24.0262H125.146L125.535 23.0424H124.253L126.535 15.6344H127.694L128.07 14.6828H126.857L126.86 14.6805ZM115.95 14.4941C115.228 14.4003 114.495 14.403 113.774 14.5021C113.303 14.5693 112.861 14.7663 112.499 15.0704C112.137 15.3746 111.869 15.7735 111.726 16.2213L109.739 22.3682C109.676 22.5566 109.659 22.7569 109.689 22.9531C109.719 23.1492 109.795 23.3356 109.912 23.4972C110.028 23.6588 110.182 23.791 110.36 23.8833C110.538 23.9755 110.735 24.0251 110.936 24.028H113.232C113.652 24.026 114.061 23.8918 114.398 23.6448C114.735 23.3979 114.984 23.0511 115.108 22.655L117.131 16.3736C117.198 16.1733 117.22 15.9608 117.195 15.7513C117.17 15.5417 117.098 15.3402 116.986 15.1609C116.873 14.9816 116.722 14.8289 116.543 14.7137C116.363 14.5984 116.161 14.5234 115.949 14.4938L115.95 14.4941ZM115.552 16.1469L113.48 22.5559C113.429 22.7152 113.328 22.8545 113.192 22.9538C113.056 23.053 112.892 23.1069 112.723 23.1079H111.704C111.652 23.1074 111.6 23.0969 111.552 23.0768C111.505 23.0567 111.461 23.0275 111.425 22.9908C111.389 22.9541 111.36 22.9107 111.34 22.8631C111.321 22.8155 111.311 22.7645 111.312 22.7132C111.313 22.6725 111.32 22.632 111.333 22.5933L113.424 16.103C113.469 15.959 113.551 15.8287 113.661 15.7242C113.771 15.6197 113.906 15.5443 114.054 15.505L114.163 15.4751C114.505 15.3841 114.865 15.3869 115.206 15.4831C115.272 15.504 115.335 15.5377 115.388 15.5823C115.442 15.6269 115.486 15.6816 115.518 15.7431C115.55 15.8047 115.57 15.8719 115.576 15.9409C115.582 16.0099 115.573 16.0794 115.552 16.1453M108.664 14.4907C107.96 14.4 107.085 14.4777 106.504 14.9202L106.616 14.5684H104.963L101.371 25.8264H103.035L103.797 23.429C104.44 23.8287 105.187 24.0356 105.947 24.0246C107.014 24.0246 107.561 23.4695 107.822 22.6508L109.846 16.3702C109.912 16.1699 109.934 15.9575 109.909 15.7481C109.883 15.5387 109.812 15.3372 109.699 15.158C109.587 14.9788 109.436 14.8261 109.257 14.7107C109.078 14.5952 108.876 14.5199 108.664 14.4899M108.264 16.1425L106.193 22.5528C106.142 22.7123 106.042 22.8517 105.906 22.9511C105.769 23.0505 105.605 23.1046 105.436 23.1055C105.186 23.1393 104.931 23.1201 104.689 23.0492C104.447 22.9784 104.224 22.8576 104.033 22.6947L105.759 17.2693L106.135 16.103C106.18 15.959 106.261 15.8287 106.371 15.7241C106.481 15.6195 106.616 15.5442 106.764 15.505L106.874 15.4758C107.215 15.3841 107.576 15.3868 107.916 15.4839C107.983 15.5033 108.044 15.5353 108.098 15.5783C108.151 15.6212 108.196 15.6741 108.229 15.734C108.262 15.7939 108.282 15.8596 108.289 15.9274C108.297 15.9952 108.29 16.0637 108.27 16.129L108.264 16.1425ZM122.99 15.6303C123.03 15.5263 123.174 15.1449 123.388 14.6059C121.774 14.5019 121.049 15.2413 120.934 15.3757L121.148 14.7135H119.493L116.483 24.0249H118.147L120.462 16.8375C121.361 15.4402 122.748 15.6521 122.99 15.6303ZM100.308 18.7279H98.6659C98.2445 18.7279 98.106 18.3145 98.2332 17.9126L98.8179 16.1027C98.8633 15.9589 98.9447 15.8286 99.0547 15.7241C99.1646 15.6196 99.2995 15.5441 99.4468 15.5047L99.5569 15.4756C99.9597 15.3838 100.379 15.3866 100.78 15.4836C100.848 15.5035 100.91 15.5365 100.964 15.5807C101.019 15.6248 101.063 15.6792 101.096 15.7407C101.129 15.8021 101.148 15.8694 101.154 15.9386C101.16 16.0077 101.152 16.0773 101.13 16.1433L100.77 17.2584H102.426L102.711 16.371C102.778 16.1704 102.799 15.9579 102.773 15.7484C102.747 15.5389 102.675 15.3374 102.563 15.1583C102.45 14.9791 102.298 14.8265 102.119 14.7111C101.94 14.5958 101.738 14.5206 101.526 14.4907C100.744 14.3969 99.953 14.3996 99.1716 14.4988C98.7008 14.5658 98.2588 14.7627 97.8963 15.0669C97.5339 15.371 97.2659 15.77 97.123 16.2179L96.57 17.9321C96.5108 18.1086 96.4946 18.2965 96.5228 18.4804C96.5509 18.6643 96.6225 18.839 96.7318 18.9905C96.8411 19.142 96.985 19.2659 97.1518 19.3522C97.3187 19.4386 97.5038 19.4849 97.6922 19.4874H99.1242C99.2099 19.4886 99.2941 19.5098 99.37 19.549C99.4459 19.5883 99.5114 19.6446 99.5613 19.7134C99.6111 19.7823 99.6439 19.8617 99.6569 19.9453C99.67 20.0289 99.663 20.1144 99.6364 20.1948L98.8727 22.5525C98.822 22.7118 98.7214 22.8512 98.5854 22.9504C98.4493 23.0496 98.2848 23.1036 98.1157 23.1045H97.0359C96.9839 23.1041 96.9325 23.0935 96.8846 23.0734C96.8368 23.0533 96.7934 23.0241 96.757 22.9874C96.7207 22.9508 96.692 22.9074 96.6726 22.8597C96.6533 22.8121 96.6436 22.7611 96.6442 22.7098C96.6449 22.6691 96.6519 22.6287 96.6648 22.59L97.0622 21.3589H95.4014L95.0764 22.3622C95.0134 22.5506 94.9962 22.751 95.0262 22.9471C95.0563 23.1433 95.1326 23.3297 95.2492 23.4913C95.3657 23.6529 95.5192 23.7852 95.6971 23.8774C95.875 23.9696 96.0725 24.0191 96.2734 24.022H98.628C99.0479 24.02 99.4562 23.8858 99.7935 23.6388C100.131 23.3919 100.379 23.0451 100.503 22.649L101.316 20.1252C101.37 19.9666 101.384 19.7977 101.359 19.6323C101.334 19.4669 101.27 19.3097 101.172 19.1735C101.074 19.0373 100.944 18.926 100.794 18.8485C100.644 18.7711 100.477 18.7298 100.308 18.7279Z" fill="white"/>
</g>
</g>
<defs>
<clipPath id="clip0_2348_447">
<rect width="128" height="26" fill="white"/>
</clipPath>
</defs>
</svg>
