<svg width="98" height="73" viewBox="0 0 98 73" fill="none" xmlns="http://www.w3.org/2000/svg">
<g clip-path="url(#clip0_2348_406)">
<path d="M98 64.8391V32.4195H65.6046V0H32.3954V32.4195H0V64.8391L49.0113 16.7392L98 64.8391Z" fill="white"/>
<path d="M34.1135 59.8378V55.7149C34.1135 54.3857 33.8648 53.4845 33.3675 53.0114C32.8701 52.5383 31.9206 52.2905 30.519 52.2905H20.4364V63.2622H30.519C31.8528 63.2622 32.7797 63.0144 33.3223 62.4962C33.8648 62.0006 34.1361 61.0994 34.1361 59.8378M35.9446 59.6801C35.9446 61.7077 35.3795 63.127 34.2717 63.9156C33.4127 64.5239 31.7624 64.8167 29.3661 64.8167H18.6731V50.6909H29.3661C31.785 50.6909 33.4127 51.0063 34.2717 51.5921C35.3795 52.3806 35.9446 53.8 35.9446 55.8276V59.6575V59.6801Z" fill="white"/>
<path d="M55.6125 59.8152V55.6698C55.6125 54.4307 55.4316 53.5971 55.0925 53.124C54.5725 52.4481 53.4648 52.0877 51.8145 52.0877H45.3716C43.6987 52.0877 42.6136 52.4256 42.0937 53.124C41.7319 53.5971 41.5511 54.5208 41.5511 55.8726V59.5899C41.5511 60.9416 41.7319 61.8653 42.0937 62.3384C42.6136 63.0143 43.7213 63.3748 45.3716 63.3748H51.8145C53.4874 63.3748 54.5725 63.0368 55.0925 62.3384C55.4542 61.8653 55.6125 61.0318 55.6125 59.7926M57.534 59.7476C57.534 61.8428 57.0593 63.2621 56.1098 64.0281C55.5446 64.4787 54.7308 64.7716 53.6683 64.9068C53.1031 64.9744 52.1988 65.0194 50.9781 65.0194H46.2533C44.8969 65.0194 43.8796 64.9518 43.2014 64.8392C42.3197 64.704 41.6189 64.4337 41.099 64.0281C40.1269 63.2621 39.6521 61.8653 39.6521 59.8377V55.9852C39.6521 53.7773 40.1269 52.2904 41.0763 51.5469C41.6415 51.0964 42.4554 50.826 43.5179 50.6683C44.1056 50.6007 45.0099 50.5557 46.2081 50.5557H50.9555C52.1536 50.5557 53.0579 50.6007 53.6457 50.6683C54.7082 50.8035 55.522 51.0964 56.0872 51.5469C57.0367 52.2904 57.5114 53.7098 57.5114 55.8275V59.7701L57.534 59.7476Z" fill="white"/>
<path d="M79.7338 64.8392H77.9931V52.4031L71.7988 64.8392H69.606L63.4118 52.4031V64.8392H61.6711V50.7134H64.6551L70.6685 62.9918L76.6819 50.7134H79.7338V64.8392Z" fill="white"/>
<path d="M22.4484 70.9221L19.9165 67.2949H18.6731V72.3189H19.8035V69.0973L22.0867 72.3189H22.8102L25.0934 69.0973V72.3189H26.2464V67.2949H24.9578L22.4484 70.9221Z" fill="white"/>
<path d="M32.2598 72.3189H37.2332V71.2375H33.3901V70.2688H37.075V69.1874H33.3901V68.3989H37.2332V67.2949H32.2598V72.3189Z" fill="white"/>
<path d="M46.9767 71.2375H44.1282V68.3988H46.9767C47.4514 68.3988 47.6097 68.5114 47.6549 68.534C47.7001 68.579 47.8131 68.7142 47.8131 69.1648V70.4489C47.8131 70.7418 47.7453 70.9671 47.6549 71.0572C47.5871 71.1248 47.4288 71.2149 46.9993 71.2149M48.3331 67.6553C48.0166 67.43 47.4514 67.3174 46.615 67.3174H42.9527V72.3414H46.615C47.4514 72.3414 47.994 72.2288 48.3331 72.0035C48.7626 71.6881 48.9887 71.1699 48.9887 70.4264V69.2324C48.9887 68.4889 48.7626 67.9707 48.3331 67.6553Z" fill="white"/>
<path d="M55.9968 67.2949H54.8438V72.3189H55.9968V67.2949Z" fill="white"/>
<path d="M67.7974 70.5166V70.2237H66.6897V70.6518C66.6897 70.8996 66.6445 71.1024 66.5541 71.1699C66.5089 71.215 66.3506 71.3051 65.8985 71.3051H63.9769C63.6152 71.3051 63.3665 71.2375 63.2761 71.1024C63.2535 71.0573 63.1631 70.9221 63.1631 70.4265V69.255C63.1631 68.7593 63.2535 68.6016 63.2535 68.5791C63.3439 68.4439 63.5926 68.3763 63.9543 68.3763H65.8759C66.2828 68.3763 66.441 68.4664 66.4863 68.5115C66.5767 68.5791 66.6219 68.7593 66.6219 69.0071V69.3676H67.707V69.0973C67.707 69.0973 67.7296 68.9621 67.7296 68.8494C67.7296 68.2411 67.5262 67.8131 67.1645 67.5878C66.848 67.385 66.328 67.2949 65.5594 67.2949H64.1578C63.7961 67.2949 63.5022 67.2949 63.3213 67.34C62.9596 67.385 62.6657 67.4977 62.4623 67.6779C62.1006 67.9708 61.9197 68.5115 61.9197 69.3V70.4941C61.9197 71.2375 62.1006 71.7332 62.4397 72.0261C62.6431 72.1838 62.8918 72.2964 63.2083 72.364C63.4117 72.409 63.7282 72.4091 64.1578 72.4091H65.5594C66.0115 72.4091 66.328 72.409 66.5541 72.364C66.8706 72.3189 67.1192 72.2063 67.3001 72.0711C67.594 71.8233 67.7748 71.3727 67.7748 70.7644V70.6067C67.7748 70.6067 67.7748 70.5617 67.7748 70.5391" fill="white"/>
<path d="M75.2803 70.2913L76.2524 68.6467L77.2245 70.2913H75.2803ZM76.7723 67.2949H75.6872L72.7484 72.3189H74.0821L74.6473 71.3502H77.8575L78.4452 72.3189H79.7338L76.795 67.2949H76.7723Z" fill="white"/>
</g>
<defs>
<clipPath id="clip0_2348_406">
<rect width="98" height="72.3864" fill="white"/>
</clipPath>
</defs>
</svg>
