<svg width="124" height="26" viewBox="0 0 124 26" fill="none" xmlns="http://www.w3.org/2000/svg">
<path d="M0 19.7406H3.56642V8.91074C4.553 8.65738 5.56568 8.51935 6.58412 8.49942C8.91597 8.49942 10.2877 9.87032 10.2877 11.6524V19.7406H13.8541V11.6524C13.8541 8.0881 11.248 5.48348 6.58412 5.48348C5.56568 5.50342 4.553 5.64145 3.56642 5.8948V0.548386H0V19.7406ZM17.1461 19.7406H20.7125V6.03187H17.1461V19.7406ZM18.9292 4.11258C20.1638 4.11258 21.1239 3.153 21.1239 2.05623C21.1239 0.959457 20.1637 0 18.9292 0C17.6948 0 16.7345 0.959582 16.7345 2.05635C16.7345 3.15312 17.6947 4.11258 18.9292 4.11258ZM24.1417 24.9499H27.7079V19.8771C27.7079 19.8771 29.0796 20.289 30.3146 20.289C35.1153 20.289 38.4076 16.999 38.4076 12.8863C38.4076 8.77355 35.1153 5.48348 30.3146 5.48348C27.1597 5.48348 24.142 6.71732 24.142 6.71732L24.1417 24.9499ZM30.3146 17.2725C29.08 17.2725 27.7084 16.8611 27.7084 16.8611V8.91074C27.7084 8.91074 29.0796 8.49942 30.3146 8.49942C32.9207 8.49942 34.704 10.2815 34.704 12.8863C34.704 15.491 32.9204 17.2725 30.3146 17.2725ZM40.7394 24.9494H44.3058V19.8766C44.3058 19.8766 45.6775 20.2879 46.912 20.2879C51.7127 20.2879 55.0049 16.9978 55.0049 12.8851C55.0049 8.77242 51.7129 5.48236 46.912 5.48236C43.7571 5.48236 40.7394 6.7162 40.7394 6.7162V24.9494ZM46.9116 17.2725C45.677 17.2725 44.3055 16.8611 44.3055 16.8611V8.91074C44.3055 8.91074 45.6772 8.49942 46.9116 8.49942C49.5177 8.49942 51.301 10.2815 51.301 12.8863C51.301 15.491 49.5175 17.2725 46.9116 17.2725ZM64.0572 20.289C68.4466 20.289 71.7386 16.999 71.7386 12.8863C71.7386 8.77355 68.447 5.48348 64.0572 5.48348C59.6674 5.48348 56.3762 8.77367 56.3762 12.8863C56.3762 16.9988 59.6682 20.289 64.0572 20.289ZM64.0572 17.2725C61.8625 17.2725 60.0793 15.4904 60.0793 12.8856C60.0793 10.2809 61.8629 8.49942 64.0572 8.49942C66.2515 8.49942 68.035 10.2815 68.035 12.8863C68.035 15.491 66.2523 17.2725 64.0572 17.2725ZM71.8757 25.1139C71.8757 25.1139 76.2652 23.5786 76.2652 18.6434V6.03187H74.7567V18.6439C74.7567 22.6194 71.3274 24.1274 71.3274 24.1274L71.8757 25.1139ZM75.4425 2.7413C75.6049 2.74198 75.7657 2.71053 75.9158 2.64876C76.0659 2.587 76.2022 2.49614 76.317 2.38143C76.4318 2.26673 76.5227 2.13044 76.5845 1.98044C76.6463 1.83044 76.6778 1.66969 76.6771 1.50747C76.6778 1.34525 76.6463 1.1845 76.5845 1.0345C76.5227 0.884496 76.4318 0.748209 76.317 0.633502C76.2022 0.518794 76.0659 0.427937 75.9158 0.36617C75.7657 0.304404 75.6049 0.272953 75.4425 0.27363C75.2802 0.272953 75.1194 0.304404 74.9693 0.36617C74.8192 0.427937 74.6828 0.518794 74.5681 0.633502C74.4533 0.748209 74.3624 0.884496 74.3006 1.0345C74.2388 1.1845 74.2073 1.34525 74.208 1.50747C74.2073 1.66969 74.2388 1.83044 74.3006 1.98044C74.3624 2.13044 74.4533 2.26673 74.5681 2.38143C74.6828 2.49614 74.8192 2.587 74.9693 2.64876C75.1194 2.71053 75.2802 2.74198 75.4425 2.7413ZM86.6904 20.289C90.8054 20.289 93.9603 17.136 93.9603 12.8863C93.9603 8.63648 90.8055 5.48348 86.6904 5.48348C82.5752 5.48348 79.4204 8.63648 79.4204 12.8863C79.4204 17.136 82.5752 20.289 86.6904 20.289ZM86.6904 18.9181C83.3984 18.9181 80.9292 16.4506 80.9292 12.8863C80.9292 9.32193 83.3984 6.85439 86.6904 6.85439C89.9824 6.85439 92.4515 9.32193 92.4515 12.8863C92.4515 16.4506 89.9824 18.9181 86.6904 18.9181ZM102.739 20.289C107.402 20.289 110.42 17.2731 110.42 12.8863C110.42 8.77367 107.403 5.48348 102.739 5.48348C100.27 5.48348 98.7612 6.306 98.7612 6.306V0.548386H97.2523V19.1923C97.2523 19.1923 99.9956 20.289 102.739 20.289ZM102.739 18.9181C101.372 18.9044 100.021 18.6251 98.7612 18.0956V7.67665C100.021 7.14721 101.372 6.86785 102.739 6.85414C106.443 6.85414 108.912 9.32168 108.912 12.886C108.912 16.4503 106.443 18.9181 102.739 18.9181ZM117.69 20.289C121.943 20.289 124 18.2327 124 16.0393C124 10.9665 114.535 13.0233 114.535 9.459C114.535 8.0881 115.77 6.85439 118.513 6.85439C121.12 6.85439 122.766 8.22529 122.766 8.22529L123.452 7.12864C123.452 7.12864 121.532 5.48361 118.514 5.48361C114.947 5.48361 113.027 7.4029 113.027 9.45912C113.027 14.3945 122.492 12.338 122.492 16.0394C122.492 17.5473 121.12 18.9182 117.691 18.9182C114.947 18.9182 113.028 17.2732 113.028 17.2732L112.342 18.3699C112.342 18.3699 114.535 20.289 117.69 20.289Z" fill="white"/>
</svg>
