<svg width="197" height="116" viewBox="0 0 197 116" fill="none" xmlns="http://www.w3.org/2000/svg">
<g clip-path="url(#clip0_2348_523)">
<path d="M49.7308 74.085C53.0761 74.085 55.788 71.3485 55.788 67.9729C55.788 64.5972 53.0761 61.8607 49.7308 61.8607C46.3855 61.8607 43.6736 64.5972 43.6736 67.9729C43.6736 71.3485 46.3855 74.085 49.7308 74.085Z" fill="white"/>
<path d="M16.7138 15.643C22.7778 15.643 27.2951 17.4041 30.4982 20.4982C30.7925 20.7814 30.8268 21.2372 30.5804 21.5618L26.2342 27.2527C25.9536 27.6187 25.4334 27.6671 25.0912 27.3632C22.8531 25.3534 19.2735 24.2691 15.9267 24.2691C12.9836 24.2691 11.4026 25.2084 11.4026 26.8038C11.4026 28.5442 13.1273 28.9033 19.7321 30.4227C26.5559 32.0181 31.2169 34.5527 31.2169 41.7976C31.2169 49.7676 25.6182 53.6075 15.7077 53.6075C8.84965 53.6075 3.36735 51.6254 0.198428 48.1031C-0.0548114 47.82 -0.0753443 47.3848 0.157362 47.081L4.72937 41.0931C5.01683 40.7202 5.57122 40.6718 5.89974 41.0033C8.22681 43.3515 11.7722 45.0574 16.7138 45.0574C19.3694 45.0574 21.45 44.3322 21.45 42.3017C21.45 40.4163 19.6568 39.9812 13.4832 38.6068C7.8846 37.3775 1.56729 34.9119 1.56729 27.1629C1.56729 19.4139 7.30967 15.643 16.7138 15.643Z" fill="white"/>
<path d="M48.7384 53.1033C42.0583 53.1033 38.1845 49.9126 38.1845 41.6594V25.0633C38.1845 24.7871 37.9654 24.5592 37.6848 24.5592H32.4352C32.004 24.5592 31.6481 24.2069 31.6481 23.7649V17.3074C31.6481 16.8723 31.9972 16.5132 32.4352 16.5132H37.6848C37.9586 16.5132 38.1845 16.2922 38.1845 16.009V7.59703C38.1845 7.16193 38.5335 6.8028 38.9716 6.8028H46.8767C47.3079 6.8028 47.6638 7.15502 47.6638 7.59703V16.009C47.6638 16.2853 47.8829 16.5132 48.1635 16.5132H56.0002C56.4314 16.5132 56.7873 16.8654 56.7873 17.3074V23.7649C56.7873 24.2 56.4382 24.5592 56.0002 24.5592H48.1635C47.8897 24.5592 47.6638 24.7802 47.6638 25.0633V40.285C47.6638 42.6056 48.8137 43.5449 51.2503 43.5449C52.5028 43.5449 53.5979 43.4344 55.5827 43.1167C56.0618 43.0407 56.493 43.4136 56.493 43.8971V51.3905C56.493 51.7566 56.2398 52.0812 55.8839 52.1641C53.4199 52.7373 50.9217 53.1033 48.7384 53.1033Z" fill="white"/>
<path d="M93.1854 52.7373H85.5677C85.1365 52.7373 84.7806 52.3851 84.7806 51.9431V48.773C84.7806 48.2965 84.1851 48.0893 83.8908 48.4622C81.4885 51.508 78.1279 53.6006 73.3643 53.6006C65.0347 53.6006 60.9418 47.9512 60.9418 39.0419V17.3005C60.9418 16.8654 61.2909 16.5063 61.7289 16.5063H69.8463C70.2775 16.5063 70.6334 16.8585 70.6334 17.3005V36.6454C70.6334 41.7907 72.5019 44.3944 76.6632 44.3944C81.9744 44.3944 84.4178 40.0502 84.4178 33.8137V17.2936C84.4178 16.8585 84.7669 16.4994 85.2049 16.4994H93.1786C93.6098 16.4994 93.9657 16.8516 93.9657 17.2936V51.9293C93.9657 52.3644 93.6166 52.7235 93.1786 52.7235L93.1854 52.7373Z" fill="white"/>
<path d="M136.551 52.7373H128.646C128.215 52.7373 127.859 52.3851 127.859 51.9431V49.146C127.859 48.6626 127.27 48.4485 126.955 48.8076C124.197 51.9707 120.378 53.6075 115.867 53.6075C106.244 53.6075 99.5712 45.9276 99.5712 34.6287C99.5712 23.3299 106.176 15.6499 115.724 15.6499C120.234 15.6499 124.17 17.4042 126.955 20.5949C127.27 20.9541 127.859 20.74 127.859 20.2565V2.81783C127.859 2.38272 128.208 2.02359 128.646 2.02359H136.551C136.982 2.02359 137.338 2.37582 137.338 2.81783V51.9431C137.338 52.3782 136.989 52.7373 136.551 52.7373ZM109.331 34.6287C109.331 40.3541 113.137 44.2632 118.735 44.2632C124.334 44.2632 128.071 40.4232 128.071 34.6287C128.071 28.8343 124.265 24.9943 118.735 24.9943C113.205 24.9943 109.331 28.9033 109.331 34.6287Z" fill="white"/>
<path d="M143.566 6.3608C143.471 2.96284 145.729 0.379848 148.871 0.0345279C152.738 -0.386763 156.078 2.98356 155.66 6.88568C155.318 10.0557 152.758 12.3348 149.391 12.2381C146.236 12.1484 143.655 9.54465 143.566 6.3608ZM153.58 52.7373H145.674C145.243 52.7373 144.887 52.3851 144.887 51.9431V17.3074C144.887 16.8723 145.236 16.5132 145.674 16.5132H153.58C154.011 16.5132 154.367 16.8654 154.367 17.3074V51.9431C154.367 52.3782 154.018 52.7373 153.58 52.7373Z" fill="white"/>
<path d="M177.685 15.643C188.739 15.643 197 23.3229 197 34.6218C197 45.9207 188.746 53.6006 177.685 53.6006C166.625 53.6006 158.371 45.9207 158.371 34.6218C158.371 23.3229 166.625 15.643 177.685 15.643ZM177.685 24.9943C172.299 24.9943 168.138 28.8342 168.138 34.6287C168.138 40.4232 172.299 44.2631 177.685 44.2631C183.072 44.2631 187.233 40.4232 187.233 34.6287C187.233 28.8342 183.072 24.9943 177.685 24.9943Z" fill="white"/>
<path d="M31.1485 106.69C30.9843 106.476 30.7242 106.366 30.4572 106.393C29.8823 106.442 29.4306 106.442 28.9926 106.442C26.5491 106.442 25.4061 105.502 25.4061 103.182V64.6371C25.4061 64.202 25.0571 63.8428 24.619 63.8428H16.7139C16.2827 63.8428 15.9268 64.1951 15.9268 64.6371V104.563C15.9268 112.823 19.8006 116.007 26.4807 116.007C28.664 116.007 31.4839 115.738 35.919 114.667C36.4802 114.536 36.713 113.859 36.357 113.403L31.1417 106.697L31.1485 106.69Z" fill="white"/>
<path d="M136.243 103.437C136.045 103.092 135.614 102.947 135.251 103.106C131.911 104.549 130.268 104.791 129.563 104.791H129.55C129.248 103.423 129.55 100.205 129.734 98.2022C129.871 96.6966 130.022 95.1357 130.077 93.5956C130.138 91.9035 130.302 87.4144 126.654 85.4253C123.109 83.4984 119.283 85.8052 117.23 87.0483C114.663 88.5954 111.33 90.9919 106.71 94.3C105.444 95.2048 104.082 96.1855 102.624 97.2215L102.508 97.3043C99.7084 99.2934 97.2992 101.013 95.2527 102.194C94.1713 102.816 93.4116 103.154 92.8983 103.341C92.5287 103.472 92.1249 103.285 91.9674 102.926C91.721 102.27 91.4267 99.8942 91.2351 98.3196C90.537 92.5873 89.8115 86.6547 85.8212 84.2305C84.0143 83.1324 81.8721 82.9597 79.7914 83.7609C74.5897 85.7499 68.7515 90.8261 63.105 95.7366C60.3946 98.0917 57.828 100.322 55.5694 102.008C55.3846 102.146 55.2066 102.277 55.0355 102.401C54.5153 102.774 53.8035 102.367 53.8583 101.724C53.9404 100.688 54.0499 99.6387 54.1389 98.803C54.7891 92.4906 55.4667 85.964 50.5525 83.3672C45.9189 80.9154 40.5666 84.6794 35.9467 88.6851L33.7634 90.5775C33.4417 90.8538 33.4006 91.3372 33.6539 91.6687L38.5133 97.919C38.7871 98.2712 39.3073 98.3265 39.6426 98.0295L42.0861 95.9092C42.7226 95.3567 43.2907 94.8871 43.804 94.4865C44.3173 94.086 45.0633 94.4865 45.0086 95.1495C44.9264 96.1095 44.8306 97.0557 44.7485 97.8223C44.461 100.633 44.1599 103.534 44.3447 105.986C44.8717 112.775 49.3753 113.769 50.7441 113.914C51.0179 113.942 51.2917 113.956 51.5723 113.956C56.3565 113.956 61.5102 109.701 69.2648 102.961C72.8376 99.8528 76.7731 96.4341 80.0515 94.3208C80.5032 94.0307 81.0987 94.2862 81.1945 94.818C81.4956 96.4825 81.7352 98.4094 81.8652 99.5075C82.2348 102.519 82.5223 104.894 83.282 106.676C84.6577 109.929 86.7658 111.98 89.5377 112.768C94.9995 114.329 100.427 110.461 107.942 105.109L108.058 105.026C109.523 103.983 110.892 103.002 112.165 102.09C114.656 100.302 117.086 98.5613 119.126 97.1662C119.653 96.8071 120.351 97.2284 120.296 97.8638C119.776 103.548 119.352 109.839 124.375 112.968C125.819 113.866 127.483 114.329 129.461 114.329C132.226 114.329 135.607 113.41 139.843 111.504C140.268 111.311 140.439 110.786 140.206 110.378L136.243 103.458V103.437Z" fill="white"/>
<path d="M146.202 63.311H154.114C154.545 63.311 154.901 63.6632 154.901 64.1052V89.7073C154.901 90.1562 155.441 90.3772 155.756 90.0595L167.309 78.2288C167.46 78.0769 167.658 77.994 167.871 77.994H178.917C179.622 77.994 179.971 78.8504 179.472 79.3477L165.982 92.8635C165.804 93.0431 165.783 93.3193 165.934 93.5196L180.382 113.003C180.772 113.527 180.403 114.273 179.752 114.273H168.302C168.049 114.273 167.809 114.149 167.665 113.942L158.795 101.51C158.603 101.248 158.22 101.227 158.015 101.476L155.031 105.012C154.955 105.102 154.914 105.219 154.914 105.336V113.472C154.914 113.907 154.565 114.266 154.127 114.266H146.215C145.784 114.266 145.428 113.914 145.428 113.472V64.0845C145.428 63.6494 145.777 63.2903 146.215 63.2903L146.202 63.311Z" fill="white"/>
</g>
<defs>
<clipPath id="clip0_2348_523">
<rect width="197" height="116" fill="white"/>
</clipPath>
</defs>
</svg>
