<svg width="104" height="53" viewBox="0 0 104 53" fill="none" xmlns="http://www.w3.org/2000/svg">
<path d="M4.92996 6.82866V10.9359H11.5312V14.7556H4.92996V19.2126H12.3961V23.177H0V2.86426H12.3961V6.82866H4.92996Z" fill="white"/>
<path d="M30.0752 8.69258C31.1991 9.91761 31.7629 11.6004 31.7629 13.7428V23.175H26.8603V14.4075C26.8603 13.329 26.5812 12.4885 26.0228 11.8897C25.4645 11.291 24.7146 10.9925 23.775 10.9925C22.8353 10.9925 22.0836 11.291 21.5253 11.8897C20.967 12.4885 20.6878 13.329 20.6878 14.4075V23.175H15.7579V7.03175H20.6878V9.17234C21.1878 8.4582 21.861 7.89604 22.7076 7.47854C23.5524 7.06471 24.5048 6.85596 25.5612 6.85596C27.446 6.85596 28.9476 7.46939 30.0734 8.69258H30.0752Z" fill="white"/>
<path d="M44.4272 7.49307C45.2829 7.95635 45.9434 8.56428 46.4032 9.31688V7.02979H51.3331V23.1474C51.3331 24.6325 51.0412 25.9783 50.4555 27.1832C49.8662 28.3881 48.974 29.3494 47.7734 30.0636C46.5729 30.7777 45.0786 31.1348 43.2887 31.1348C40.9058 31.1348 38.9754 30.569 37.4939 29.441C36.0141 28.3112 35.1694 26.7822 34.9577 24.8522H39.8311C39.9844 25.4711 40.3511 25.9564 40.9259 26.3134C41.5006 26.6705 42.214 26.85 43.0588 26.85C44.0769 26.85 44.8906 26.5551 45.4964 25.9655C46.1021 25.3777 46.405 24.4365 46.405 23.1456V20.8585C45.9233 21.6111 45.261 22.2227 44.4162 22.6951C43.5696 23.1675 42.5807 23.4038 41.4477 23.4038C40.1194 23.4038 38.9188 23.0613 37.8442 22.3765C36.7659 21.6935 35.9174 20.7175 35.2916 19.4558C34.6676 18.1924 34.3556 16.7311 34.3556 15.0703C34.3556 13.4095 34.6676 11.9537 35.2916 10.7012C35.9156 9.44689 36.7659 8.48371 37.8442 7.80803C38.9188 7.13234 40.1194 6.79541 41.4477 6.79541C42.5807 6.79541 43.5751 7.02613 44.429 7.48941L44.4272 7.49307ZM45.3796 12.1826C44.6954 11.4685 43.867 11.1114 42.8873 11.1114C41.9075 11.1114 41.0755 11.463 40.3913 12.1679C39.7107 12.8711 39.3695 13.8434 39.3695 15.0758C39.3695 16.3081 39.7107 17.2896 40.3913 18.0129C41.0755 18.738 41.9075 19.0988 42.8873 19.0988C43.867 19.0988 44.6972 18.7417 45.3796 18.0276C46.0638 17.3134 46.4032 16.3393 46.4032 15.1033C46.4032 13.8672 46.062 12.8967 45.3796 12.1826Z" fill="white"/>
<path d="M59.8853 1.76562V23.177H54.9553V1.76562H59.8853Z" fill="white"/>
<path d="M63.8682 4.58515C63.3208 4.07427 63.0471 3.44253 63.0471 2.68993C63.0471 1.93734 63.3208 1.2763 63.8682 0.765413C64.4156 0.254527 65.1217 0 65.9883 0C66.855 0 67.5319 0.254527 68.0793 0.765413C68.6266 1.2763 68.9003 1.91902 68.9003 2.68993C68.9003 3.46084 68.6266 4.07427 68.0793 4.58515C67.5319 5.09604 66.8349 5.35056 65.9883 5.35056C65.1417 5.35056 64.4174 5.09604 63.8682 4.58515ZM68.4387 7.03154V23.1766H63.5088V7.03154H68.4387Z" fill="white"/>
<path d="M74.7578 22.6858C73.663 22.2024 72.7964 21.5432 72.1614 20.7027C71.5265 19.8622 71.1707 18.9229 71.0941 17.8828H75.9675C76.024 18.4431 76.2849 18.8954 76.7447 19.2415C77.2063 19.5876 77.7738 19.7634 78.447 19.7634C79.0619 19.7634 79.5381 19.6425 79.872 19.4008C80.2077 19.1591 80.3756 18.846 80.3756 18.4614C80.3756 17.9981 80.1347 17.6576 79.6567 17.4342C79.175 17.2126 78.3978 16.9672 77.3194 16.6962C76.1682 16.427 75.2048 16.1414 74.4366 15.8429C73.6667 15.5426 73.0025 15.0702 72.4479 14.4256C71.8896 13.7774 71.6104 12.9039 71.6104 11.8053C71.6104 10.8805 71.864 10.0346 72.3731 9.27464C72.8821 8.51106 73.632 7.90862 74.6228 7.46548C75.6135 7.02052 76.7903 6.80078 78.1551 6.80078C80.1712 6.80078 81.7641 7.30251 82.9263 8.30414C84.0886 9.30943 84.7564 10.6388 84.9297 12.2997H80.3738C80.2971 11.7393 80.0508 11.2944 79.6385 10.9684C79.2243 10.6388 78.6806 10.4759 78.011 10.4759C77.4326 10.4759 76.9892 10.5857 76.6827 10.8091C76.3762 11.0307 76.2211 11.3328 76.2211 11.7192C76.2211 12.1843 76.4674 12.5304 76.9564 12.7629C77.4472 12.9937 78.2098 13.2262 79.2498 13.4569C80.4394 13.7682 81.4119 14.0704 82.1637 14.3688C82.9117 14.6692 83.5722 15.1489 84.1378 15.8154C84.7053 16.4801 84.9972 17.3756 85.0191 18.4926C85.0191 19.4374 84.7527 20.2834 84.2254 21.025C83.6963 21.7666 82.9373 22.3507 81.9465 22.7737C80.9558 23.1967 79.81 23.411 78.5018 23.411C77.0987 23.411 75.8507 23.1693 74.7541 22.6895L74.7578 22.6858Z" fill="white"/>
<path d="M102.329 8.69279C103.442 9.91782 104 11.6006 104 13.7431V23.1752H99.0976V14.4078C99.0976 13.3292 98.8184 12.4887 98.2638 11.8899C97.7054 11.2912 96.9555 10.9927 96.0141 10.9927C95.0726 10.9927 94.3227 11.2912 93.7644 11.8899C93.2097 12.4887 92.9306 13.3292 92.9306 14.4078V23.1752H88.0006V1.76562H92.9306V9.20002C93.4305 8.48771 94.1129 7.91822 94.9777 7.4934C95.8407 7.07041 96.8132 6.85617 97.8879 6.85617C99.7325 6.85617 101.212 7.4696 102.329 8.69279Z" fill="white"/>
<path d="M21.6771 41.5649C21.1388 42.5409 20.3123 43.3264 19.1993 43.9234C18.0827 44.5221 16.6978 44.8206 15.0466 44.8206H11.9905V52.114H7.06052V31.8013H15.0466C16.6613 31.8013 18.0261 32.0814 19.1391 32.6381C20.2557 33.1984 21.0896 33.9693 21.6479 34.9526C22.2062 35.936 22.4853 37.0676 22.4853 38.3384C22.4853 39.5158 22.2171 40.5907 21.6771 41.5649ZM16.7781 40.219C17.2397 39.7777 17.4696 39.1496 17.4696 38.3384C17.4696 37.5272 17.2397 36.9028 16.7781 36.4578C16.3147 36.0165 15.6141 35.7931 14.6708 35.7931H11.9905V40.8873H14.6708C15.6122 40.8873 16.3147 40.6639 16.7781 40.219Z" fill="white"/>
<path d="M40.7219 35.9668V52.1119H35.7919V49.9127C35.292 50.6268 34.6151 51.2 33.7593 51.634C32.9036 52.0679 31.9567 52.2858 30.9185 52.2858C29.6906 52.2858 28.6013 52.0112 27.6598 51.4618C26.7184 50.9125 25.9885 50.1159 25.4685 49.0722C24.9522 48.0321 24.6913 46.8071 24.6913 45.3989V35.9668H29.5939V44.7343C29.5939 45.8128 29.873 46.6533 30.4313 47.2521C30.9897 47.8472 31.7359 48.1493 32.6792 48.1493C33.6225 48.1493 34.3998 47.849 34.9581 47.2521C35.5164 46.6533 35.7956 45.8128 35.7956 44.7343V35.9668H40.7255H40.7219Z" fill="white"/>
<path d="M49.1765 48.0341H56.1536V52.1138H43.6682V48.1787L50.3588 40.0485H43.7265V35.9688H56.0076V39.9039L49.1765 48.0341Z" fill="white"/>
<path d="M63.9812 43.8666H70.9584V47.9463H58.4729V44.0113L65.1636 35.881H58.5313V31.8013H70.8124V35.7364L63.9812 43.8666Z" fill="white"/>
<path d="M78.8834 30.7007V52.1121H73.9534V30.7007H78.8834Z" fill="white"/>
<path d="M97.6873 45.2249H86.5302C86.605 46.2302 86.9261 46.9956 87.4954 47.5266C88.061 48.0558 88.7598 48.3195 89.5863 48.3195C90.8142 48.3195 91.6699 47.8013 92.1516 46.7575H97.3991C97.1309 47.8178 96.6437 48.7736 95.9431 49.6214C95.2424 50.4711 94.3612 51.1376 93.3066 51.6192C92.2465 52.0989 91.066 52.3407 89.7596 52.3407C88.1832 52.3407 86.7801 52.0037 85.5522 51.328C84.3206 50.6523 83.3591 49.6892 82.6676 48.433C81.9761 47.1787 81.6312 45.7156 81.6312 44.0346C81.6312 42.3537 81.9724 40.8906 82.6548 39.6363C83.3354 38.3819 84.2933 37.4188 85.5212 36.7431C86.7528 36.0674 88.165 35.7305 89.7596 35.7305C91.3543 35.7305 92.7008 36.0564 93.9123 36.7138C95.1238 37.3693 96.0708 38.3032 96.7532 39.5191C97.4337 40.7349 97.7749 42.1522 97.7749 43.7728C97.7749 44.2361 97.7476 44.7177 97.691 45.2194L97.6873 45.2249ZM92.7282 42.4764C92.7282 41.6285 92.4417 40.9529 91.8634 40.453C91.2868 39.9494 90.5661 39.7004 89.7031 39.7004C88.8401 39.7004 88.1777 39.9421 87.6121 40.4218C87.0447 40.9052 86.6926 41.5901 86.5594 42.4764H92.7282Z" fill="white"/>
</svg>
