<svg width="144" height="23" viewBox="0 0 144 23" fill="none" xmlns="http://www.w3.org/2000/svg">
<path d="M37.9731 7.11988H37.7994L35.976 15.7159H39.536L37.9731 7.11988ZM40.7516 21.3598L39.9701 17.2788H35.7155L34.7604 21.3598H31.6346L35.7155 5.3833H40.2306L44.1379 21.3598H40.7516Z" fill="white"/>
<path d="M46.3942 21.3598V5.3833H49.6937V19.71H54.3825V21.3598H46.3942Z" fill="white"/>
<path d="M61.8507 7.11988H61.6771L59.8537 15.7159H63.4137L61.8507 7.11988ZM64.5424 21.3598L63.761 17.2788H59.5064L58.5513 21.3598H55.4254L59.5932 5.3833H64.1083L68.0156 21.3598H64.5424Z" fill="white"/>
<path d="M76.8709 15.6291C76.8709 14.153 76.3499 13.8057 74.0924 13.8057H73.3978V19.7969H74.0924C76.3499 19.7969 76.8709 19.3627 76.8709 17.9735V15.6291ZM76.6104 8.76962C76.6104 7.38036 76.1763 7.03305 74.0056 7.03305H73.3109V12.3296H74.0056C76.0895 12.3296 76.6104 11.8955 76.6104 10.593V8.76962ZM74.8739 21.3598H70.1851V5.3833H74.6134C78.347 5.3833 79.9967 5.9911 79.9967 8.07499V10.6799C79.9967 12.1559 79.1285 12.8506 76.8709 13.1111C79.2153 13.2847 80.2572 13.9793 80.2572 15.4554V18.7549C80.2572 20.752 78.6943 21.3598 74.8739 21.3598Z" fill="white"/>
<path d="M85.3803 21.0994L88.6798 9.98535H90.0691L86.7696 21.0994H85.3803Z" fill="white"/>
<path d="M93.1965 17.0186C91.8073 17.0186 91.2863 17.2791 91.0258 18.0606L90.6785 19.2762C90.418 20.0576 90.5048 20.4918 91.1995 20.4918C91.8941 20.4918 92.2414 20.1445 92.5019 19.2762L93.1965 17.0186ZM92.0678 21.0996L92.1546 20.5786C91.6336 21.0127 91.0258 21.2732 90.2444 21.2732C89.0288 21.2732 88.8551 20.6654 89.2024 19.5367L89.6365 17.9737C89.9839 16.7581 91.0258 16.324 93.457 16.2372L93.8043 15.1084C94.0648 14.2401 93.978 13.8928 93.2834 13.8928C92.5887 13.8928 92.3282 14.1533 92.0678 14.8479L91.9809 15.282H90.5917L90.6785 15.1084C91.1126 13.7191 91.7204 13.1113 93.5438 13.1113C95.3672 13.1113 95.6277 13.7191 95.1936 15.1084L93.457 21.0127L92.0678 21.0996Z" fill="white"/>
<path d="M100.401 15.195C100.661 14.4135 100.574 13.9794 99.8797 13.9794C99.1851 13.9794 98.8378 14.3267 98.5773 15.195L97.3617 19.3628C97.1012 20.1442 97.188 20.5784 97.9695 20.5784C98.751 20.5784 99.0114 20.2311 99.2719 19.3628L100.401 15.195ZM98.4036 21.273C97.6222 21.273 97.188 21.0125 96.9276 20.5784L96.6671 21.0125H95.3646L98.6641 9.89844H100.053L98.9246 13.7189C99.4456 13.2848 100.053 13.0243 100.835 13.0243C102.05 13.0243 102.224 13.6321 101.877 14.7608L100.488 19.2759C100.14 20.752 99.6192 21.273 98.4036 21.273Z" fill="white"/>
<path d="M107.001 15.1949C107.261 14.4134 107.174 13.9793 106.48 13.9793C105.785 13.9793 105.438 14.3266 105.177 15.1949L103.962 19.3627C103.701 20.1441 103.788 20.5783 104.483 20.5783C105.177 20.5783 105.438 20.231 105.698 19.3627L107.001 15.1949ZM104.309 21.3597C102.399 21.3597 102.225 20.6651 102.659 19.1022L103.788 15.4554C104.222 13.8925 104.83 13.2847 106.74 13.2847C108.564 13.2847 108.824 13.9793 108.39 15.4554L107.261 19.189C106.827 20.6651 106.219 21.3597 104.309 21.3597Z" fill="white"/>
<path d="M113.775 14.2398C112.56 14.2398 112.039 14.5871 111.778 15.5422L110.129 21.1861H108.739L111.084 13.4583H112.386L112.299 13.9793C112.82 13.5452 113.428 13.2847 114.123 13.2847C114.21 13.2847 114.296 13.2847 114.383 13.2847L114.123 14.2398H113.775Z" fill="white"/>
<path d="M117.247 17.1051C115.858 17.1051 115.337 17.3656 115.076 18.1471L114.729 19.3627C114.469 20.1441 114.555 20.5783 115.25 20.5783C115.945 20.5783 116.292 20.231 116.553 19.3627L117.247 17.1051ZM116.118 21.1861L116.205 20.7519C115.684 21.1861 115.076 21.4466 114.295 21.4466C113.079 21.4466 112.906 20.8388 113.253 19.71L113.687 18.1471C114.034 16.9315 115.076 16.4973 117.508 16.4105L117.855 15.2817C118.115 14.4134 118.029 14.0661 117.334 14.0661C116.639 14.0661 116.379 14.3266 116.118 15.0212L116.032 15.4554H114.642L114.729 15.2817C115.163 13.8925 115.771 13.2847 117.594 13.2847C119.418 13.2847 119.678 13.8925 119.244 15.2817L117.508 21.1861H116.118Z" fill="white"/>
<path d="M121.243 21.3597C119.593 21.3597 119.593 20.8388 120.027 19.4495L121.59 14.1529H120.808L121.069 13.3715H121.85L122.371 11.6349L123.847 11.2876L123.24 13.3715H124.282L124.021 14.1529H122.979L121.243 19.8836C121.156 20.3178 121.243 20.4914 121.937 20.4914H122.111L121.85 21.2729C121.677 21.3597 121.416 21.3597 121.243 21.3597Z" fill="white"/>
<path d="M128.277 15.2817C128.537 14.5003 128.45 14.0661 127.756 14.0661C127.061 14.0661 126.714 14.4134 126.453 15.2817L125.238 19.4495C124.977 20.231 125.064 20.6651 125.759 20.6651C126.453 20.6651 126.714 20.3178 126.974 19.4495L128.277 15.2817ZM125.498 21.3597C123.588 21.3597 123.414 20.6651 123.849 19.1022L124.977 15.4554C125.411 13.8925 126.019 13.2847 127.929 13.2847C129.84 13.2847 130.013 13.9793 129.579 15.4554L128.45 19.189C128.016 20.7519 127.409 21.3597 125.498 21.3597Z" fill="white"/>
<path d="M135.049 14.2398C133.833 14.2398 133.312 14.5871 133.052 15.5422L131.402 21.1861H130.013L132.357 13.4583H133.66L133.573 13.9793C134.094 13.5452 134.702 13.2847 135.396 13.2847C135.483 13.2847 135.57 13.2847 135.657 13.2847L135.396 14.2398H135.049Z" fill="white"/>
<path d="M137.043 11.288L137.39 10.1592H138.953L138.606 11.288H137.043ZM134.091 21.1864L136.435 13.4587H137.825L135.48 21.1864H134.091Z" fill="white"/>
<path d="M141.907 17.105C140.518 17.105 139.997 17.3655 139.736 18.147L139.389 19.3626C139.129 20.1441 139.215 20.5782 139.91 20.5782C140.605 20.5782 140.952 20.2309 141.212 19.3626L141.907 17.105ZM140.778 21.186L140.865 20.665C140.344 21.0992 139.736 21.3597 138.955 21.3597C137.739 21.3597 137.566 20.7519 137.913 19.6231L138.347 18.0602C138.694 16.8446 139.736 16.4104 142.168 16.3236L142.515 15.1948C142.775 14.3265 142.689 13.9792 141.994 13.9792C141.299 13.9792 141.039 14.2397 140.778 14.9343L140.605 15.3685H139.215L139.302 15.1948C139.736 13.8056 140.344 13.1978 142.168 13.1978C143.991 13.1978 144.251 13.8056 143.817 15.1948L141.994 21.0992L140.778 21.186Z" fill="white"/>
<path d="M85.3803 21.0994L88.6798 9.98535H90.0691L86.7696 21.0994H85.3803Z" fill="white"/>
<path d="M93.1965 17.0186C91.8073 17.0186 91.2863 17.2791 91.0258 18.0606L90.6785 19.2762C90.418 20.0576 90.5048 20.4918 91.1995 20.4918C91.8941 20.4918 92.2414 20.1445 92.5019 19.2762L93.1965 17.0186ZM92.0678 21.0996L92.1546 20.5786C91.6336 21.0127 91.0258 21.2732 90.2444 21.2732C89.0288 21.2732 88.8551 20.6654 89.2024 19.5367L89.6365 17.9737C89.9839 16.7581 91.0258 16.324 93.457 16.2372L93.8043 15.1084C94.0648 14.2401 93.978 13.8928 93.2834 13.8928C92.5887 13.8928 92.3282 14.1533 92.0678 14.8479L91.9809 15.282H90.5917L90.6785 15.1084C91.1126 13.7191 91.7204 13.1113 93.5438 13.1113C95.3672 13.1113 95.6277 13.7191 95.1936 15.1084L93.457 21.0127L92.0678 21.0996Z" fill="white"/>
<path d="M100.401 15.195C100.661 14.4135 100.574 13.9794 99.8797 13.9794C99.1851 13.9794 98.8378 14.3267 98.5773 15.195L97.3617 19.3628C97.1012 20.1442 97.188 20.5784 97.9695 20.5784C98.751 20.5784 99.0114 20.2311 99.2719 19.3628L100.401 15.195ZM98.4036 21.273C97.6222 21.273 97.188 21.0125 96.9276 20.5784L96.6671 21.0125H95.3646L98.6641 9.89844H100.053L98.9246 13.7189C99.4456 13.2848 100.053 13.0243 100.835 13.0243C102.05 13.0243 102.224 13.6321 101.877 14.7608L100.488 19.2759C100.14 20.752 99.6192 21.273 98.4036 21.273Z" fill="white"/>
<path d="M107.001 15.1949C107.261 14.4134 107.174 13.9793 106.48 13.9793C105.785 13.9793 105.438 14.3266 105.177 15.1949L103.962 19.3627C103.701 20.1441 103.788 20.5783 104.483 20.5783C105.177 20.5783 105.438 20.231 105.698 19.3627L107.001 15.1949ZM104.309 21.3597C102.399 21.3597 102.225 20.6651 102.659 19.1022L103.788 15.4554C104.222 13.8925 104.83 13.2847 106.74 13.2847C108.564 13.2847 108.824 13.9793 108.39 15.4554L107.261 19.189C106.827 20.6651 106.219 21.3597 104.309 21.3597Z" fill="white"/>
<path d="M113.775 14.2398C112.56 14.2398 112.039 14.5871 111.778 15.5422L110.129 21.1861H108.739L111.084 13.4583H112.386L112.299 13.9793C112.82 13.5452 113.428 13.2847 114.123 13.2847C114.21 13.2847 114.296 13.2847 114.383 13.2847L114.123 14.2398H113.775Z" fill="white"/>
<path d="M117.247 17.1051C115.858 17.1051 115.337 17.3656 115.076 18.1471L114.729 19.3627C114.469 20.1441 114.555 20.5783 115.25 20.5783C115.945 20.5783 116.292 20.231 116.553 19.3627L117.247 17.1051ZM116.118 21.1861L116.205 20.7519C115.684 21.1861 115.076 21.4466 114.295 21.4466C113.079 21.4466 112.906 20.8388 113.253 19.71L113.687 18.1471C114.034 16.9315 115.076 16.4973 117.508 16.4105L117.855 15.2817C118.115 14.4134 118.029 14.0661 117.334 14.0661C116.639 14.0661 116.379 14.3266 116.118 15.0212L116.032 15.4554H114.642L114.729 15.2817C115.163 13.8925 115.771 13.2847 117.594 13.2847C119.418 13.2847 119.678 13.8925 119.244 15.2817L117.508 21.1861H116.118Z" fill="white"/>
<path d="M121.243 21.3597C119.593 21.3597 119.593 20.8388 120.027 19.4495L121.59 14.1529H120.808L121.069 13.3715H121.85L122.371 11.6349L123.847 11.2876L123.24 13.3715H124.282L124.021 14.1529H122.979L121.243 19.8836C121.156 20.3178 121.243 20.4914 121.937 20.4914H122.111L121.85 21.2729C121.677 21.3597 121.416 21.3597 121.243 21.3597Z" fill="white"/>
<path d="M128.277 15.2817C128.537 14.5003 128.45 14.0661 127.756 14.0661C127.061 14.0661 126.714 14.4134 126.453 15.2817L125.238 19.4495C124.977 20.231 125.064 20.6651 125.759 20.6651C126.453 20.6651 126.714 20.3178 126.974 19.4495L128.277 15.2817ZM125.498 21.3597C123.588 21.3597 123.414 20.6651 123.849 19.1022L124.977 15.4554C125.411 13.8925 126.019 13.2847 127.929 13.2847C129.84 13.2847 130.013 13.9793 129.579 15.4554L128.45 19.189C128.016 20.7519 127.409 21.3597 125.498 21.3597Z" fill="white"/>
<path d="M135.049 14.2398C133.833 14.2398 133.312 14.5871 133.052 15.5422L131.402 21.1861H130.013L132.357 13.4583H133.66L133.573 13.9793C134.094 13.5452 134.702 13.2847 135.396 13.2847C135.483 13.2847 135.57 13.2847 135.657 13.2847L135.396 14.2398H135.049Z" fill="white"/>
<path d="M137.043 11.288L137.39 10.1592H138.953L138.606 11.288H137.043ZM134.091 21.1864L136.435 13.4587H137.825L135.48 21.1864H134.091Z" fill="white"/>
<path d="M141.907 17.105C140.518 17.105 139.997 17.3655 139.736 18.147L139.389 19.3626C139.129 20.1441 139.215 20.5782 139.91 20.5782C140.605 20.5782 140.952 20.2309 141.212 19.3626L141.907 17.105ZM140.778 21.186L140.865 20.665C140.344 21.0992 139.736 21.3597 138.955 21.3597C137.739 21.3597 137.566 20.7519 137.913 19.6231L138.347 18.0602C138.694 16.8446 139.736 16.4104 142.168 16.3236L142.515 15.1948C142.775 14.3265 142.689 13.9792 141.994 13.9792C141.299 13.9792 141.039 14.2397 140.778 14.9343L140.605 15.3685H139.215L139.302 15.1948C139.736 13.8056 140.344 13.1978 142.168 13.1978C143.991 13.1978 144.251 13.8056 143.817 15.1948L141.994 21.0992L140.778 21.186Z" fill="white"/>
<path d="M21.9095 15.9765C21.7359 15.9765 20.6071 16.0633 20.2598 16.0633C18.2627 16.0633 16.4393 15.1082 15.3106 13.6321L15.2237 13.5453C14.5291 12.5033 14.095 11.2877 14.095 9.98531C14.095 8.68287 15.5711 5.7307 15.7447 5.38338C17.3945 2.60486 15.3106 0 12.7925 0C10.2745 0 8.27745 2.60486 9.84036 5.38338C10.014 5.64387 11.5769 8.50922 11.5769 9.98531C11.5769 11.1141 11.2296 12.2429 10.7086 13.1111C10.7086 13.1111 10.3613 13.6321 10.2745 13.7189C9.14573 15.195 7.40916 16.0633 5.4121 16.0633C5.06479 16.0633 3.93602 15.9765 3.67553 15.9765C0.462871 15.9765 -0.752729 19.0155 0.462872 21.1862C1.67847 23.3569 4.97796 23.7911 6.6277 21.0126C6.80136 20.7521 6.88819 20.4916 7.06185 20.2311C8.01696 18.0604 10.2745 16.4975 12.7925 16.4975C15.2237 16.4975 17.3945 17.9736 18.3496 19.9706C18.6101 20.3179 18.7837 20.5784 18.9574 20.9257C20.6071 23.7042 23.8198 23.2701 25.1222 21.0994C26.4246 19.0155 25.1222 15.9765 21.9095 15.9765Z" fill="white"/>
</svg>
