<svg width="144" height="28" viewBox="0 0 144 28" fill="none" xmlns="http://www.w3.org/2000/svg">
<mask id="mask0_2348_420" style="mask-type:luminance" maskUnits="userSpaceOnUse" x="3" y="1" width="134" height="27">
<path d="M137 1H3V27.0556H137V1Z" fill="white"/>
</mask>
<g mask="url(#mask0_2348_420)">
<path d="M31.7809 6.68783H49.6251V1H31.4236C29.6124 1 27.8756 1.73151 26.6103 3.0303L3 27.0506H10.9098L30.3121 7.30489C30.6992 6.91176 31.2301 6.68783 31.7809 6.68783Z" fill="white"/>
<path d="M36.7523 17.4417H49.6243V11.7539H36.395C34.5838 11.7539 32.847 12.4854 31.5816 13.7842L18.5359 27.0608H26.4407L35.2834 18.0638C35.6705 17.6706 36.2014 17.4467 36.7523 17.4467" fill="white"/>
<path d="M113.613 22.9698V26.1446C113.603 26.6373 113.99 27.0404 114.481 27.0503H118.575C118.957 27.0404 119.255 26.7269 119.25 26.3437V24.3432H116.635V25.3136H118.208V25.9954H114.68V23.2783H119.25V22.2632H114.312C113.925 22.2632 113.618 22.5767 113.613 22.9599" fill="white"/>
<path d="M55.7675 1.0249C54.7353 1.03485 53.9066 1.87584 53.9116 2.91089V17.3022H57.3703V11.1864H67.389L69.4384 7.67315H57.3653V4.5431H71.2595L73.3139 1.0249H55.7675Z" fill="white"/>
<path d="M88.8175 17.3273H92.9064L84.4458 2.75189C83.4732 1.06992 81.3246 0.502632 79.6473 1.47797C79.1213 1.7865 78.6797 2.22441 78.377 2.75189L69.9164 17.3273H74.0053L75.9852 13.7444H86.8426L88.8225 17.3273H88.8175ZM77.6277 10.7686L81.4089 3.9213L85.1951 10.7686H77.6277Z" fill="white"/>
<path d="M137 4.5431V1.0249H121.047C120.015 1.03485 119.186 1.87584 119.196 2.91089V10.8331L123.022 17.3022H137V13.784H122.65V4.5431H137Z" fill="white"/>
<path d="M73.0126 23.3332V22.3081H68.3581C68.0603 22.3081 67.8172 22.5519 67.8172 22.8555V26.5031C67.8172 26.8066 68.0554 27.0505 68.3581 27.0554H73.0126V26.0254H68.8245V23.3282H73.0126V23.3332Z" fill="white"/>
<path d="M112.934 17.3273H117.023L108.562 2.75189C107.589 1.06992 105.441 0.502632 103.764 1.47797C103.238 1.7865 102.796 2.22441 102.493 2.75189L94.0327 17.3273H98.1216L100.101 13.7444H110.959L112.939 17.3273H112.934ZM101.744 10.7686L105.53 3.9213L109.316 10.7686H101.749H101.744Z" fill="white"/>
<path d="M54.1315 22.2734V23.1294H56.3149V27.0556H57.4214V23.1294H59.6098V22.2734H54.1315Z" fill="white"/>
<path d="M60.9634 22.2735V27.0557H65.876V26.155H62.07V24.9657H64.2633V24.1545H62.07V23.0847H65.8314V22.2686H60.9634V22.2735Z" fill="white"/>
<path d="M79.8546 22.2734V24.1296H76.4009V22.2734H75.2943V27.0556H76.4009V24.9954H79.8546V27.0556H80.9711V22.2734H79.8546Z" fill="white"/>
<path d="M83.3931 27.0556V22.2734H84.1474L87.4919 25.095C87.606 25.1895 87.7053 25.2741 87.7946 25.3587C87.879 25.4383 87.9583 25.5279 88.0328 25.6125C88.0129 25.3438 88.003 25.1547 87.998 25.0452C87.9931 24.9357 87.9881 24.8461 87.9881 24.7864V22.2784H88.9855V27.0606H88.2313L84.7379 24.1047C84.6585 24.03 84.5791 23.9604 84.5195 23.9007C84.455 23.841 84.4004 23.7812 84.3409 23.7165C84.3558 23.8658 84.3657 24.0052 84.3756 24.1345C84.3756 24.2689 84.3855 24.3784 84.3855 24.4779V27.0606H83.3931V27.0556Z" fill="white"/>
<path d="M91.3083 23.4079C91.3083 22.975 91.3876 22.6764 91.5514 22.5172C91.7152 22.3579 92.0228 22.2783 92.4893 22.2783H95.9876C96.4491 22.2783 96.7617 22.3579 96.9255 22.5172C97.0892 22.6764 97.1686 22.975 97.1686 23.4079V25.9309C97.1686 26.3688 97.0892 26.6624 96.9255 26.8216C96.7617 26.9809 96.4491 27.0605 95.9876 27.0605H92.4893C92.0278 27.0605 91.7152 26.9809 91.5514 26.8216C91.3876 26.6624 91.3083 26.3638 91.3083 25.9309V23.4129V23.4079ZM92.4148 26.1598H96.0621V23.1293H92.4148V26.1598Z" fill="white"/>
<path d="M99.4961 22.2734V27.0556H104.17V26.1549H100.603V22.2734H99.4961Z" fill="white"/>
<path d="M105.525 23.4079C105.525 22.975 105.604 22.6764 105.768 22.5172C105.932 22.3579 106.239 22.2783 106.706 22.2783H110.204C110.666 22.2783 110.978 22.3579 111.142 22.5172C111.306 22.6764 111.385 22.975 111.385 23.4079V25.9309C111.385 26.3688 111.306 26.6624 111.142 26.8216C110.978 26.9809 110.666 27.0605 110.204 27.0605H106.706C106.244 27.0605 105.932 26.9809 105.768 26.8216C105.604 26.6624 105.525 26.3638 105.525 25.9309V23.4129V23.4079ZM106.631 26.1598H110.279V23.1293H106.631V26.1598Z" fill="white"/>
<path d="M122.694 22.2734H121.588V27.0506H122.694V22.2734Z" fill="white"/>
<path d="M125.125 22.2735V27.0557H130.037V26.155H126.231V24.9657H128.424V24.1545H126.231V23.0847H129.992V22.2686H125.125V22.2735Z" fill="white"/>
<path d="M136.644 24.3735C136.48 24.2143 136.167 24.1346 135.701 24.1346H132.738V23.1046H136.867L136.877 22.2686H132.947C132.485 22.2686 132.173 22.3482 132.009 22.5074C131.845 22.6667 131.766 22.9652 131.766 23.3982V23.9256C131.766 24.3586 131.845 24.6571 132.009 24.8164C132.173 24.9756 132.485 25.0552 132.947 25.0552H135.909V26.145H131.81V27.0457H135.696C136.162 27.0457 136.475 26.9661 136.639 26.8069C136.802 26.6476 136.882 26.3491 136.882 25.9161V25.2593C136.882 24.8263 136.802 24.5278 136.639 24.3685" fill="white"/>
</g>
</svg>
